<mxfile host="Electron" modified="2023-11-05T12:50:52.248Z" agent="Mozilla/5.0 (Windows NT 10.0; Win64; x64) AppleWebKit/537.36 (KHTML, like Gecko) draw.io/22.0.3 Chrome/114.0.5735.289 Electron/25.8.4 Safari/537.36" etag="aQeAiNY5Cm4dPNyA1Wmd" version="22.0.3" type="device">
  <diagram name="Sayfa -1" id="Ufv58f9_d0mlHlVabw5H">
    <mxGraphModel dx="1036" dy="606" grid="1" gridSize="10" guides="1" tooltips="1" connect="1" arrows="1" fold="1" page="1" pageScale="1" pageWidth="827" pageHeight="1169" math="0" shadow="0">
      <root>
        <mxCell id="0" />
        <mxCell id="1" parent="0" />
        <mxCell id="jeydyexh_FKdB_HLLU6y-2" style="edgeStyle=orthogonalEdgeStyle;rounded=0;orthogonalLoop=1;jettySize=auto;html=1;" edge="1" parent="1" source="jeydyexh_FKdB_HLLU6y-1" target="jeydyexh_FKdB_HLLU6y-3">
          <mxGeometry relative="1" as="geometry">
            <mxPoint x="390" y="160" as="targetPoint" />
          </mxGeometry>
        </mxCell>
        <mxCell id="jeydyexh_FKdB_HLLU6y-1" value="start" style="ellipse;whiteSpace=wrap;html=1;" vertex="1" parent="1">
          <mxGeometry x="330" width="120" height="80" as="geometry" />
        </mxCell>
        <mxCell id="jeydyexh_FKdB_HLLU6y-4" style="edgeStyle=orthogonalEdgeStyle;rounded=0;orthogonalLoop=1;jettySize=auto;html=1;" edge="1" parent="1" source="jeydyexh_FKdB_HLLU6y-3" target="jeydyexh_FKdB_HLLU6y-5">
          <mxGeometry relative="1" as="geometry">
            <mxPoint x="390" y="240" as="targetPoint" />
          </mxGeometry>
        </mxCell>
        <mxCell id="jeydyexh_FKdB_HLLU6y-3" value="sayi1==a&lt;br&gt;sayi2==b&lt;br&gt;toplam==T" style="rounded=0;whiteSpace=wrap;html=1;" vertex="1" parent="1">
          <mxGeometry x="330" y="130" width="120" height="70" as="geometry" />
        </mxCell>
        <mxCell id="jeydyexh_FKdB_HLLU6y-7" style="edgeStyle=orthogonalEdgeStyle;rounded=0;orthogonalLoop=1;jettySize=auto;html=1;entryX=0.5;entryY=0;entryDx=0;entryDy=0;" edge="1" parent="1" source="jeydyexh_FKdB_HLLU6y-5" target="jeydyexh_FKdB_HLLU6y-6">
          <mxGeometry relative="1" as="geometry" />
        </mxCell>
        <mxCell id="jeydyexh_FKdB_HLLU6y-5" value="T==0" style="rounded=0;whiteSpace=wrap;html=1;" vertex="1" parent="1">
          <mxGeometry x="330" y="230" width="120" height="60" as="geometry" />
        </mxCell>
        <mxCell id="jeydyexh_FKdB_HLLU6y-8" style="edgeStyle=orthogonalEdgeStyle;rounded=0;orthogonalLoop=1;jettySize=auto;html=1;" edge="1" parent="1" source="jeydyexh_FKdB_HLLU6y-6" target="jeydyexh_FKdB_HLLU6y-9">
          <mxGeometry relative="1" as="geometry">
            <mxPoint x="390" y="440" as="targetPoint" />
          </mxGeometry>
        </mxCell>
        <mxCell id="jeydyexh_FKdB_HLLU6y-6" value="a&#39;yÄ± giriniz&lt;br&gt;b&#39;yi giriniz" style="shape=parallelogram;perimeter=parallelogramPerimeter;whiteSpace=wrap;html=1;fixedSize=1;" vertex="1" parent="1">
          <mxGeometry x="330" y="330" width="120" height="60" as="geometry" />
        </mxCell>
        <mxCell id="jeydyexh_FKdB_HLLU6y-12" style="edgeStyle=orthogonalEdgeStyle;rounded=0;orthogonalLoop=1;jettySize=auto;html=1;" edge="1" parent="1" source="jeydyexh_FKdB_HLLU6y-9">
          <mxGeometry relative="1" as="geometry">
            <mxPoint x="520" y="460" as="targetPoint" />
          </mxGeometry>
        </mxCell>
        <mxCell id="jeydyexh_FKdB_HLLU6y-13" style="edgeStyle=orthogonalEdgeStyle;rounded=0;orthogonalLoop=1;jettySize=auto;html=1;" edge="1" parent="1" source="jeydyexh_FKdB_HLLU6y-9">
          <mxGeometry relative="1" as="geometry">
            <mxPoint x="280" y="460" as="targetPoint" />
          </mxGeometry>
        </mxCell>
        <mxCell id="jeydyexh_FKdB_HLLU6y-9" value="a&amp;gt;b" style="rhombus;whiteSpace=wrap;html=1;" vertex="1" parent="1">
          <mxGeometry x="350" y="420" width="80" height="80" as="geometry" />
        </mxCell>
      </root>
    </mxGraphModel>
  </diagram>
</mxfile>
